<svg width="48" height="48" viewBox="0 0 48 48" fill="none" xmlns="http://www.w3.org/2000/svg">
<circle cx="24" cy="24" r="24" fill="white"/>
<path fill-rule="evenodd" clip-rule="evenodd" d="M18.7423 25.0336L24.2439 30.8511C24.6084 31.2366 24.6056 31.8428 24.241 32.2283C23.8465 32.6455 23.1792 32.6489 22.7847 32.2317L15.6498 24.6871C15.2852 24.3016 15.2852 23.6984 15.6498 23.3129L22.7847 15.7683C23.1792 15.3511 23.8465 15.3545 24.241 15.7717C24.6056 16.1572 24.6084 16.7634 24.2439 17.1489L18.7423 22.9664H32C32.5523 22.9664 33 23.4141 33 23.9664V24.0336C33 24.5859 32.5523 25.0336 32 25.0336H18.7423Z" fill="black"/>
</svg>
