<svg width="48" height="48" viewBox="0 0 48 48" fill="none" xmlns="http://www.w3.org/2000/svg">
<circle cx="24" cy="24" r="24" transform="rotate(180 24 24)" fill="white"/>
<path fill-rule="evenodd" clip-rule="evenodd" d="M29.2577 22.9664L23.7561 17.1489C23.3916 16.7634 23.3944 16.1572 23.759 15.7717C24.1535 15.3545 24.8208 15.3511 25.2153 15.7683L32.3502 23.3129C32.7148 23.6984 32.7148 24.3016 32.3502 24.6871L25.2153 32.2317C24.8208 32.6489 24.1535 32.6455 23.759 32.2283C23.3944 31.8428 23.3916 31.2366 23.7561 30.8511L29.2577 25.0336L16 25.0336C15.4477 25.0336 15 24.5859 15 24.0336L15 23.9664C15 23.4141 15.4477 22.9664 16 22.9664L29.2577 22.9664Z" fill="black"/>
</svg>
