<svg width="28" height="28" viewBox="0 0 28 28" fill="none" xmlns="http://www.w3.org/2000/svg">
<g id="basket">
<mask id="mask0_6_11" style="mask-type:alpha" maskUnits="userSpaceOnUse" x="0" y="0" width="28" height="28">
<rect id="Rectangle" width="28" height="28" fill="#C4C4C4"/>
</mask>
<g mask="url(#mask0_6_11)">
<path id="basket_2" fill-rule="evenodd" clip-rule="evenodd" d="M9 4C9 5 6.5 5 5 5C3.5 5 1 5 1 4C1 3 3.5 3 5 3C6.5 3 9 3 9 4ZM12.3212 18.619C11.8452 18.6949 11.3829 18.4206 11.2214 17.9665L7.98289 8.85812C7.74913 8.20067 8.24355 7.51199 8.94122 7.52324L26.3008 7.80317C26.925 7.81324 27.3875 8.38644 27.2654 8.99865L25.9106 15.7909C25.8288 16.201 25.5004 16.517 25.0874 16.5828L12.3212 18.619ZM14.1523 23.5331C14.1523 24.8178 13.1109 25.8593 11.8262 25.8593C10.5415 25.8593 9.5 24.8178 9.5 23.5331C9.5 22.2484 10.5415 21.2069 11.8262 21.2069C13.1109 21.2069 14.1523 22.2484 14.1523 23.5331ZM23.457 25.8593C24.7417 25.8593 25.7831 24.8178 25.7831 23.5331C25.7831 22.2484 24.7417 21.2069 23.457 21.2069C22.1723 21.2069 21.1308 22.2484 21.1308 23.5331C21.1308 24.8178 22.1723 25.8593 23.457 25.8593Z" fill="white"/>
</g>
</g>
</svg>
