<svg width="240" height="28" viewBox="0 0 240 28" fill="none" xmlns="http://www.w3.org/2000/svg">
<path d="M7.3254 27.4885L0 0.483656H4.80524L10.4336 21.2248L16.4657 0.481898L20.945 0.483656L26.9982 21.335L32.6519 0.488796L37.457 0.481898L30.1285 27.4837L24.5587 27.478L18.7072 7.31118L12.8502 27.4832L7.3254 27.4885Z" fill="white"/>
<path d="M40.7712 0.497698H45.3453V27.471H40.7712V0.497698Z" fill="white"/>
<path d="M55.1246 23.2399H66.2603V27.471H50.6451V0.497698H55.1246V23.2399Z" fill="white"/>
<path d="M80.3299 0.528809C84.0838 0.528809 87.2069 1.83547 89.6675 4.4177C92.1596 6.99992 93.4215 10.2044 93.4215 13.9999C93.4215 17.7644 92.1596 20.9688 89.6675 23.5821C87.2069 26.1644 84.0838 27.471 80.3299 27.471H69.5727V0.497698H80.3299V0.528809ZM80.3299 23.271C82.9166 23.271 85.0302 22.3999 86.6075 20.6577C88.2479 18.9155 89.0681 16.6755 89.0681 14.031C89.0681 11.3244 88.2479 9.14659 86.6075 7.40436C84.9987 5.66214 82.8851 4.79103 80.3299 4.79103H74.0838V23.271H80.3299Z" fill="white"/>
<path d="M117.554 19.7655C117.554 21.9755 116.766 23.812 115.157 25.275C113.548 26.738 111.655 27.485 109.321 27.485H97.6171V0.497698H108.469C110.709 0.497698 112.601 1.24475 114.147 2.64548C115.725 4.07733 116.482 5.85159 116.482 7.96824C116.482 10.3339 115.535 12.1393 113.706 13.4778C116.103 14.7229 117.554 16.964 117.554 19.7655ZM102.128 4.66875V11.7658H108.5C110.488 11.7658 112.002 10.2094 112.002 8.21726C112.002 6.22511 110.488 4.66875 108.5 4.66875H102.128ZM109.352 23.314C111.434 23.314 113.075 21.6642 113.075 19.5476C113.075 17.4309 111.434 15.7812 109.352 15.7812H102.128V23.3451H109.352V23.314Z" fill="white"/>
<path d="M126.292 23.2517H138.406V27.485H121.813V0.497698H138.217V4.731H126.292V11.7346H137.239V15.9368H126.292V23.2517Z" fill="white"/>
<path d="M158.028 27.485L152.223 17.6488H146.923V27.485H142.444V0.497698H153.39C155.851 0.497698 157.933 1.33813 159.605 3.05013C161.308 4.69987 162.192 6.75426 162.192 9.18218C162.192 12.6062 160.015 15.75 156.766 16.9951L162.98 27.485H158.028ZM146.923 4.66874V13.6956H153.359C155.756 13.6956 157.649 11.7035 157.649 9.18218C157.649 6.69201 155.725 4.66874 153.359 4.66874H146.923Z" fill="white"/>
<path d="M181.971 27.485L176.198 17.6437H170.898V27.485H166.419V0.483721H177.365C179.826 0.483721 181.908 1.32459 183.58 3.03748C185.283 4.68808 186.167 6.74354 186.167 9.17273C186.167 12.5985 183.99 15.744 180.741 16.9897L186.955 27.485H181.971ZM170.898 4.65694V13.6885H177.334C179.731 13.6885 181.624 11.6953 181.624 9.17273C181.624 6.68126 179.7 4.65694 177.334 4.65694H170.898Z" fill="white"/>
<path d="M190.236 0.486658H194.716V27.485H190.236V0.486658Z" fill="white"/>
<path d="M204.495 23.2517H216.609V27.4849H200.015V0.497698H216.419V4.73099H204.495V11.7346H215.441V15.9368H204.495V23.2517Z" fill="white"/>
<path d="M219.732 21.3422L223.612 19.1022C224.716 22.1511 226.956 23.6444 230.394 23.6444C233.801 23.6444 235.473 22.2133 235.473 20.0978C235.473 18.9778 235 18.1689 234.117 17.6089C233.233 17.0178 231.593 16.3644 229.259 15.68C226.64 14.9022 225.347 14.4044 223.517 13.2222C221.751 11.9778 220.867 10.2044 220.867 7.77778C220.867 5.38222 221.719 3.51555 223.454 2.11555C225.158 0.684443 227.24 0 229.669 0C234.054 0 237.429 2.24 239.196 5.94222L235.41 8.08889C234.274 5.6 232.35 4.32444 229.669 4.32444C227.05 4.32444 225.378 5.63111 225.378 7.68444C225.378 9.67555 226.703 10.6089 230.899 11.8844C231.94 12.2267 232.697 12.4756 233.17 12.6622C233.675 12.8178 234.337 13.0978 235.189 13.44C236.073 13.7822 236.767 14.1867 237.177 14.5289C238.628 15.6489 240.173 17.4844 239.984 20.0667C239.984 22.4933 239.101 24.4533 237.303 25.8844C235.536 27.3156 233.202 28 230.3 28C225 27.9689 221.151 25.48 219.732 21.3422Z" fill="white"/>
</svg>
