<svg width="40" height="40" viewBox="0 0 40 40" fill="none" xmlns="http://www.w3.org/2000/svg">
<path opacity="0.1" d="M20 40C31.0457 40 40 31.0457 40 20C40 8.95431 31.0457 0 20 0C8.95431 0 0 8.95431 0 20C0 31.0457 8.95431 40 20 40Z" fill="white"/>
<path d="M29.296 15.112C29.448 14.648 29.296 14.312 28.68 14.312H26.6C26.4002 14.3042 26.2031 14.3595 26.0365 14.4701C25.8699 14.5807 25.7424 14.7409 25.672 14.928C25.013 16.4842 24.1319 17.9367 23.056 19.24C22.592 19.704 22.36 19.856 22.056 19.856C21.896 19.856 21.744 19.704 21.744 19.24V15.08C21.744 14.544 21.592 14.28 21.128 14.28H17.816C17.6832 14.2731 17.5528 14.3174 17.4516 14.4037C17.3504 14.49 17.2861 14.6118 17.272 14.744C17.272 15.28 18.072 15.36 18.12 16.824V20C18.12 20.696 17.968 20.8 17.736 20.8C17.048 20.8 15.272 18.184 14.272 15.2C14.04 14.584 13.888 14.352 13.344 14.352H11.264C10.648 14.352 10.576 14.664 10.576 14.968C10.576 15.512 11.264 18.28 13.888 21.984C15.656 24.448 18.048 25.832 20.288 25.832C21.6 25.832 21.832 25.528 21.832 24.984V23.064C21.832 22.44 21.984 22.368 22.368 22.368C22.752 22.368 23.216 22.52 24.448 23.752C25.912 25.216 26.144 25.832 26.912 25.832H28.992C29.608 25.832 29.92 25.528 29.688 24.912C29.2713 23.9752 28.6668 23.1339 27.912 22.44C27.456 21.824 26.68 21.208 26.448 20.904C26.3851 20.8442 26.3349 20.7722 26.3007 20.6925C26.2664 20.6127 26.2488 20.5268 26.2488 20.44C26.2488 20.3532 26.2664 20.2673 26.3007 20.1875C26.3349 20.1078 26.3851 20.0358 26.448 19.976C26.44 20 29.064 16.344 29.296 15.112Z" fill="white"/>
</svg>
