<svg width="40" height="40" viewBox="0 0 40 40" fill="none" xmlns="http://www.w3.org/2000/svg">
<path opacity="0.1" d="M20 40C31.0457 40 40 31.0457 40 20C40 8.95431 31.0457 0 20 0C8.95431 0 0 8.95431 0 20C0 31.0457 8.95431 40 20 40Z" fill="white"/>
<path d="M29.9285 15.344C29.8054 14.89 29.5656 14.4762 29.233 14.1436C28.9003 13.811 28.4865 13.5712 28.0325 13.448C26.3685 13 19.6965 13 19.6965 13C19.6965 13 13.0085 13 11.3445 13.464C10.8906 13.5872 10.4767 13.827 10.1441 14.1596C9.8115 14.4922 9.5717 14.906 9.44853 15.36C9.1451 17.0551 8.99516 18.774 9.00053 20.496C8.98988 22.2235 9.13986 23.9483 9.44853 25.648C9.5717 26.102 9.8115 26.5158 10.1441 26.8484C10.4767 27.181 10.8906 27.4208 11.3445 27.544C13.0085 27.992 19.6965 27.992 19.6965 27.992C19.6965 27.992 26.3845 27.992 28.0485 27.544C28.5025 27.4208 28.9163 27.181 29.249 26.8484C29.5816 26.5158 29.8214 26.102 29.9445 25.648C30.2592 23.949 30.4119 22.2239 30.4005 20.496C30.4032 18.7678 30.2452 17.043 29.9285 15.344ZM17.5525 23.696V17.296L23.1045 20.496L17.5525 23.696Z" fill="white"/>
</svg>
