<svg width="40" height="40" viewBox="0 0 40 40" fill="none" xmlns="http://www.w3.org/2000/svg">
<path opacity="0.1" d="M20 40C31.0457 40 40 31.0457 40 20C40 8.95431 31.0457 0 20 0C8.95431 0 0 8.95431 0 20C0 31.0457 8.95431 40 20 40Z" fill="white"/>
<path d="M16.544 27.978C18.1473 27.9908 19.7371 27.6847 21.221 27.0775C22.7049 26.4703 24.0533 25.5742 25.1878 24.4412C26.3223 23.3082 27.2202 21.961 27.8293 20.4779C28.4385 18.9948 28.7467 17.4053 28.736 15.802C28.736 15.61 28.736 15.426 28.736 15.25C29.5733 14.6402 30.2964 13.8873 30.872 13.026C30.0926 13.3762 29.2645 13.6055 28.416 13.706C29.315 13.1628 29.9838 12.309 30.296 11.306C29.4546 11.8022 28.5347 12.1512 27.576 12.338C26.9867 11.7163 26.2246 11.2854 25.3881 11.1008C24.5515 10.9161 23.6789 10.9863 22.8826 11.3023C22.0863 11.6182 21.4029 12.1654 20.9205 12.8733C20.4381 13.5812 20.1788 14.4174 20.176 15.274C20.175 15.6031 20.2153 15.931 20.296 16.25C18.5975 16.1598 16.9369 15.7145 15.4211 14.9429C13.9054 14.1712 12.5682 13.0904 11.496 11.77C10.9505 12.7128 10.7843 13.8277 11.0309 14.8886C11.2775 15.9494 11.9186 16.8766 12.824 17.482C12.1447 17.4636 11.4801 17.2796 10.888 16.946V17.002C10.8698 17.9971 11.1983 18.9675 11.8171 19.7469C12.436 20.5264 13.3067 21.0662 14.28 21.274C13.9123 21.3738 13.533 21.4249 13.152 21.426C12.8835 21.4235 12.6157 21.3967 12.352 21.346C12.6225 22.1982 13.1545 22.9435 13.8725 23.4763C14.5905 24.0091 15.458 24.3022 16.352 24.314C14.82 25.4805 12.9414 26.1001 11.016 26.074C10.6778 26.0982 10.3382 26.0982 10 26.074C11.9464 27.3425 14.2207 28.0153 16.544 28.01" fill="white"/>
</svg>
