<svg width="40" height="40" viewBox="0 0 40 40" fill="none" xmlns="http://www.w3.org/2000/svg">
<path opacity="0.1" d="M20 40C31.0457 40 40 31.0457 40 20C40 8.95431 31.0457 0 20 0C8.95431 0 0 8.95431 0 20C0 31.0457 8.95431 40 20 40Z" fill="white"/>
<path d="M20.3668 10C19.4161 9.99848 18.4863 10.2871 17.6952 10.8294C16.9041 11.3717 16.2872 12.1432 15.9227 13.0463C15.5582 13.9493 15.4625 14.9433 15.6476 15.9024C15.8327 16.8615 16.2903 17.7425 16.9626 18.4339C17.6348 19.1253 18.4915 19.596 19.424 19.7864C20.3565 19.9768 21.323 19.8783 22.201 19.5034C23.0791 19.1285 23.8292 18.4941 24.3565 17.6804C24.8837 16.8668 25.1644 15.9106 25.1629 14.9328C25.1629 14.285 25.0389 13.6436 24.7978 13.0451C24.5568 12.4466 24.2035 11.9028 23.7582 11.4448C23.3128 10.9867 22.7841 10.6234 22.2022 10.3755C21.6203 10.1276 20.9966 10 20.3668 10ZM20.3668 16.9259C19.8349 16.9259 19.3249 16.7086 18.9488 16.3218C18.5728 15.9351 18.3615 15.4105 18.3615 14.8635C18.3615 14.3165 18.5728 13.792 18.9488 13.4052C19.3249 13.0184 19.8349 12.8011 20.3668 12.8011C20.6318 12.7948 20.8953 12.8439 21.1414 12.9453C21.3874 13.0467 21.6109 13.1983 21.7984 13.3911C21.9858 13.5839 22.1333 13.8138 22.2319 14.0669C22.3305 14.3199 22.3782 14.591 22.372 14.8635C22.373 15.1346 22.3218 15.4033 22.2214 15.6539C22.121 15.9046 21.9733 16.1324 21.7869 16.3241C21.6005 16.5158 21.379 16.6677 21.1353 16.771C20.8916 16.8743 20.6304 16.9269 20.3668 16.9259ZM22.2972 23.8518C23.3166 23.6138 24.2869 23.1917 25.1629 22.6051C25.3432 22.4702 25.4896 22.293 25.5898 22.0882C25.69 21.8834 25.7412 21.657 25.7391 21.4277C25.7378 21.1606 25.6635 20.8993 25.5246 20.6736C25.3858 20.4478 25.188 20.2669 24.9539 20.1513C24.7197 20.0357 24.4587 19.9902 24.2006 20.0199C23.9425 20.0497 23.6978 20.1535 23.4944 20.3196C22.5654 20.8937 21.503 21.1995 20.4191 21.2045C19.2706 21.1481 18.1508 20.816 17.1494 20.2349C16.9131 20.0868 16.6403 20.012 16.3637 20.0194C16.0026 20.0194 15.6562 20.167 15.4008 20.4297C15.1454 20.6923 15.0019 21.0486 15.0019 21.42C14.9888 21.659 15.0424 21.8968 15.1564 22.1054C15.2705 22.314 15.4401 22.4847 15.6454 22.5974C16.4976 23.1681 17.4471 23.5676 18.4438 23.7748L15.7951 26.5682C15.6668 26.6985 15.565 26.8537 15.4954 27.0248C15.4259 27.1958 15.3901 27.3794 15.3901 27.5648C15.3901 27.7502 15.4259 27.9338 15.4954 28.1048C15.565 28.2759 15.6668 28.4311 15.7951 28.5614C15.9257 28.699 16.0816 28.8087 16.2537 28.884C16.4258 28.9593 16.6107 28.9987 16.7977 29C17.1749 28.9949 17.5351 28.8373 17.8003 28.5614L20.3668 25.8372L23.0155 28.5614C23.2764 28.804 23.618 28.9341 23.9696 28.9247C24.3212 28.9153 24.6558 28.7671 24.9041 28.5108C25.1523 28.2545 25.2951 27.9098 25.3029 27.5481C25.3107 27.1865 25.1829 26.8356 24.9459 26.5682L22.2972 23.8518Z" fill="white"/>
</svg>
