<svg width="40" height="40" viewBox="0 0 40 40" fill="none" xmlns="http://www.w3.org/2000/svg">
<path opacity="0.1" d="M20 40C31.0457 40 40 31.0457 40 20C40 8.95431 31.0457 0 20 0C8.95431 0 0 8.95431 0 20C0 31.0457 8.95431 40 20 40Z" fill="white"/>
<path d="M28.1556 24.3755C28.1567 24.8777 28.0584 25.3753 27.8666 25.8397C27.6747 26.3041 27.393 26.7263 27.0374 27.0822C26.6819 27.4381 26.2595 27.7207 25.7944 27.9138C25.3294 28.107 24.8307 28.2069 24.3268 28.2079H15.6732C15.1693 28.2069 14.6706 28.107 14.2056 27.9138C13.7405 27.7207 13.3181 27.4381 12.9626 27.0822C12.607 26.7263 12.3253 26.3041 12.1334 25.8397C11.9416 25.3753 11.8433 24.8777 11.8444 24.3755V15.7254C11.8423 14.7103 12.2443 13.7358 12.9621 13.0159C13.6799 12.2959 14.6549 11.8893 15.6732 11.8852H24.3268C25.3451 11.8893 26.3201 12.2959 27.0379 13.0159C27.7557 13.7358 28.1577 14.7103 28.1556 15.7254V24.3755ZM24.2646 10H15.7743C15.015 10.001 14.2633 10.1511 13.5622 10.4417C12.8611 10.7324 12.2242 11.1578 11.688 11.6938C11.1518 12.2297 10.7268 12.8657 10.4372 13.5655C10.1475 14.2652 9.99898 15.015 10 15.7719V24.2281C9.99898 24.985 10.1475 25.7348 10.4372 26.4345C10.7268 27.1343 11.1518 27.7703 11.688 28.3062C12.2242 28.8422 12.8611 29.2676 13.5622 29.5583C14.2633 29.8489 15.015 29.999 15.7743 30H24.2257C24.985 29.999 25.7367 29.8489 26.4378 29.5583C27.1389 29.2676 27.7758 28.8422 28.312 28.3062C28.8482 27.7703 29.2732 27.1343 29.5628 26.4345C29.8525 25.7348 30.001 24.985 30 24.2281V15.7719C30.001 15.015 29.8525 14.2652 29.5628 13.5655C29.2732 12.8657 28.8482 12.2297 28.312 11.6938C27.7758 11.1578 27.1389 10.7324 26.4378 10.4417C25.7367 10.1511 24.985 10.001 24.2257 10H24.2646ZM20 23.4135C19.3314 23.4166 18.6768 23.2217 18.1194 22.8536C17.5619 22.4855 17.1266 21.9608 16.8686 21.3458C16.6106 20.7309 16.5415 20.0534 16.67 19.3993C16.7986 18.7451 17.119 18.1437 17.5907 17.6713C18.0624 17.1989 18.6642 16.8766 19.3198 16.7455C19.9754 16.6143 20.6553 16.6801 21.2733 16.9344C21.8914 17.1888 22.4198 17.6203 22.7916 18.1744C23.1634 18.7284 23.3619 19.38 23.3619 20.0465C23.3629 20.4877 23.2767 20.9247 23.1083 21.3326C22.9399 21.7406 22.6926 22.1115 22.3804 22.4241C22.0682 22.7368 21.6974 22.9851 21.2889 23.1548C20.8805 23.3246 20.4425 23.4125 20 23.4135ZM20 14.8798C18.9675 14.8751 17.9568 15.1763 17.0961 15.7449C16.2354 16.3136 15.5635 17.1243 15.1655 18.0741C14.7675 19.0239 14.6614 20.0701 14.8606 21.0801C15.0597 22.0902 15.5553 23.0185 16.2843 23.7474C17.0133 24.4764 17.943 24.9731 18.9556 25.1747C19.9682 25.3763 21.018 25.2736 21.9719 24.8797C22.9259 24.4858 23.7411 23.8184 24.3141 22.9621C24.8871 22.1058 25.1922 21.0992 25.1907 20.0698C25.1937 19.3876 25.0618 18.7115 24.8026 18.0801C24.5433 17.4487 24.1617 16.8745 23.6796 16.3903C23.1975 15.9061 22.6243 15.5214 21.993 15.2582C21.3616 14.995 20.6843 14.8585 20 14.8565V14.8798ZM25.3619 13.4523C25.1214 13.4508 24.886 13.5204 24.6853 13.6525C24.4846 13.7845 24.3278 13.973 24.2347 14.194C24.1417 14.415 24.1165 14.6586 24.1625 14.8938C24.2084 15.1291 24.3234 15.3455 24.4929 15.5155C24.6624 15.6855 24.8787 15.8016 25.1144 15.8489C25.3501 15.8962 25.5946 15.8727 25.8168 15.7814C26.0391 15.69 26.2292 15.5349 26.3629 15.3357C26.4967 15.1365 26.5681 14.9022 26.5681 14.6625C26.5691 14.504 26.5387 14.3468 26.4785 14.2C26.4184 14.0532 26.3297 13.9197 26.2176 13.8072C26.1054 13.6947 25.9721 13.6055 25.8253 13.5446C25.6784 13.4836 25.5209 13.4523 25.3619 13.4523Z" fill="white"/>
</svg>
